PathFileType	4	(X/Y/Z)	./resultDataOpenSim/trcMotMarkerGrf/sub09/qtm-01-03.trc
DataRate	CameraRate	NumFrames	NumMarkers	Units	OrigDataRate	OrigDataStartFrame	OrigNumFrames
250.000000	250.000000	11	24	m	250.000000	407	465
Frame#	Time	L.Toe.Tip			R.Toe.Tip			L.Ankle.Lat			R.Ankle.Lat			L.Ankle.Med			R.Ankle.Med			L.Heel			R.Heel			L.Knee.Lat			R.Knee.Lat			L.Knee.Med			R.Knee.Med			L.Thigh.Upper			R.Thigh.Upper			L.ASIS			R.ASIS			V.Sacral			L.Acromium			R.Acromium			C7			L.Elbow			R.Elbow			L.Wrist.Lat			R.Wrist.Lat
		X1	Y1	Z1	X2	Y2	Z2	X3	Y3	Z3	X4	Y4	Z4	X5	Y5	Z5	X6	Y6	Z6	X7	Y7	Z7	X8	Y8	Z8	X9	Y9	Z9	X10	Y10	Z10	X11	Y11	Z11	X12	Y12	Z12	X13	Y13	Z13	X14	Y14	Z14	X15	Y15	Z15	X16	Y16	Z16	X17	Y17	Z17	X18	Y18	Z18	X19	Y19	Z19	X20	Y20	Z20	X21	Y21	Z21	X22	Y22	Z22	X23	Y23	Z23	X24	Y24	Z24

407	1.624	1.6953056	0.12034097	-0.051615117	0.99989956	0.039155248	0.0914161	1.543968	0.083610542	-0.07482237	0.86232957	0.088443784	0.12625088	1.5683408	0.1122852	0.017068442	0.88534182	0.12347451	0.036249653	1.5014064	0.02171699	-0.020729008	0.79081652	0.087779943	0.075777031	1.4051748	0.47912298	-0.10622017	1.1027311	0.48377151	0.18573943	1.4146241	0.47435055	0.020130233	1.0888692	0.47837621	0.05935233	1.2215499	0.85282999	-0.13733069	1.1822946	0.88010508	0.23250289	1.290961	0.94708836	-0.076070163	1.2865075	0.96004792	0.16593153	1.1191298	0.99916765	0.031754418	1.2474804	1.4007389	-0.14106505	1.2461743	1.4217698	0.19121221	1.1791855	1.4589553	0.027071962	1.0790233	1.0766272	-0.18446663	1.1395471	1.0702888	0.30202445	1.1736473	0.8329659	-0.23594665	1.3521401	0.89025883	0.29305299
408	1.628	1.6991171	0.11474138	-0.050444232	1.0001497	0.039254981	0.091634128	1.5474463	0.081507175	-0.07400346	0.86349209	0.090262796	0.12677525	1.5715843	0.1098868	0.017978092	0.88689465	0.1250423	0.036747642	1.502802	0.021293472	-0.020381726	0.79192276	0.090586409	0.076330478	1.4129849	0.47867124	-0.10607827	1.1081799	0.48218178	0.1859678	1.4228	0.47431666	0.019848848	1.0953611	0.47682909	0.05950186	1.2278503	0.85203996	-0.1381097	1.1883393	0.87886952	0.23186437	1.2974799	0.94617031	-0.076610245	1.2928266	0.95880219	0.16555714	1.1254535	0.99787041	0.031088661	1.253257	1.3996139	-0.14159401	1.2516724	1.4205774	0.19074554	1.1846092	1.4577837	0.026338066	1.0851238	1.0753211	-0.18509366	1.1450112	1.0689284	0.30100401	1.1797841	0.83172878	-0.23670488	1.3575631	0.88882201	0.29276568
409	1.632	1.7029835	0.1081351	-0.049165215	1.0004226	0.039351933	0.091882763	1.5506704	0.079664706	-0.073030289	0.86470327	0.092198421	0.12729181	1.5747978	0.1077714	0.018993921	0.88857555	0.12671305	0.037249981	1.5038289	0.021450622	-0.019766326	0.79315897	0.09354679	0.076827721	1.4206205	0.47818648	-0.10606132	1.1130376	0.48046128	0.18616429	1.4308645	0.47420175	0.019469852	1.1026288	0.47515972	0.060113914	1.2341826	0.85131453	-0.13889132	1.1944657	0.87759813	0.23120206	1.3039953	0.94534912	-0.077122153	1.2991782	0.95756111	0.16516702	1.1317857	0.99664743	0.030423069	1.2590409	1.3985361	-0.14212847	1.2571972	1.4194127	0.19025421	1.190043	1.4566437	0.025603091	1.0912631	1.0740589	-0.1857318	1.1504305	1.067608	0.29998958	1.1859699	0.83052707	-0.23745462	1.362938	0.88738217	0.29248044
410	1.636	1.7070089	0.10079801	-0.047735234	1.000719	0.03944463	0.09215035	1.5536404	0.078241341	-0.072084433	0.86600024	0.094247551	0.127803	1.5780631	0.10599028	0.019978065	0.89037466	0.12848991	0.037771896	1.5046658	0.022190507	-0.019007522	0.79452538	0.096668365	0.0772998	1.428141	0.47776051	-0.10619006	1.1184163	0.4787935	0.18641448	1.4387502	0.47401788	0.019055833	1.1105893	0.47342194	0.061094986	1.2405928	0.85063578	-0.1396678	1.2006693	0.87628051	0.23051097	1.3104779	0.94464193	-0.077595001	1.3055952	0.95632707	0.16475678	1.1381019	0.99554238	0.029782093	1.2648325	1.3975107	-0.14267007	1.2627237	1.4182852	0.18974636	1.1955625	1.4555548	0.024941441	1.0974375	1.0728269	-0.18635994	1.1558305	1.0663225	0.29897466	1.1922045	0.8293638	-0.23819111	1.3682725	0.88593879	0.29219804
411	1.64	1.7111462	0.093319995	-0.046070176	1.0010375	0.039527451	0.092420289	1.5563741	0.077274163	-0.071363459	0.86743442	0.096384314	0.12829784	1.5813214	0.10446865	0.020789181	0.89229397	0.13036584	0.038327603	1.5054843	0.023307996	-0.018365927	0.79603037	0.099964681	0.077794248	1.4356133	0.47752487	-0.10644223	1.1251416	0.47728704	0.18675489	1.4463947	0.47383593	0.018683591	1.1186517	0.47169665	0.062004947	1.2471364	0.85000403	-0.14044742	1.206949	0.87492023	0.22979419	1.3169077	0.94406275	-0.078045522	1.3120847	0.95510501	0.16431691	1.1443877	0.99459406	0.029198743	1.2706255	1.3965453	-0.14322729	1.2682408	1.4172092	0.18923579	1.2012021	1.4545524	0.024388377	1.1036568	1.0716215	-0.18696823	1.1612897	1.0650878	0.2979595	1.1984905	0.8282379	-0.23891261	1.3735502	0.88449215	0.29192366
412	1.644	1.7151718	0.086370542	-0.044175193	1.0013731	0.039605904	0.0926503	1.5589506	0.076660421	-0.070973444	0.86905868	0.098572924	0.12877459	1.5844131	0.10311004	0.021355105	0.89435216	0.13232666	0.038923078	1.5063989	0.024528022	-0.01806616	0.79768946	0.10344612	0.078353928	1.4431222	0.47761956	-0.10680024	1.1327266	0.47592705	0.18703318	1.4538014	0.47380249	0.018390035	1.1262767	0.47003187	0.062460782	1.2538592	0.84944902	-0.14124934	1.2133121	0.87352308	0.22906509	1.3232754	0.94362102	-0.078504779	1.3186388	0.95390074	0.16384526	1.1506413	0.99381309	0.028705031	1.276412	1.3956489	-0.14380838	1.2737651	1.4161898	0.18873307	1.2068944	1.4536778	0.02387482	1.10993	1.0704442	-0.18755585	1.1668453	1.0639277	0.29694088	1.204831	0.82715003	-0.23962123	1.3787531	0.88304548	0.29166216
413	1.648	1.7188036	0.080397394	-0.042223624	1.0017229	0.039706424	0.092786409	1.5614939	0.076238876	-0.070891982	0.87090183	0.10081574	0.12929019	1.587192	0.1018814	0.021684685	0.89657323	0.13436591	0.039557742	1.5074444	0.025663583	-0.018154325	0.79952169	0.10711739	0.078992841	1.4507716	0.47815375	-0.10726412	1.1401217	0.47461532	0.18705651	1.4610438	0.47410931	0.018144105	1.1334225	0.46842498	0.062449073	1.2607465	0.84903183	-0.14207424	1.2197539	0.87209333	0.22833868	1.3295797	0.94332435	-0.078994262	1.3252422	0.95272471	0.16334549	1.1568645	0.99317437	0.02829852	1.2821913	1.3948295	-0.14441444	1.279323	1.4152241	0.18823547	1.2125349	1.4529578	0.023280649	1.11625	1.0692884	-0.18813837	1.1724475	1.0628569	0.29590427	1.211227	0.82610413	-0.24031883	1.3838765	0.881603	0.29140955
414	1.652	1.7218877	0.075463695	-0.040426739	1.0020982	0.039859501	0.092819323	1.5640881	0.075900003	-0.07102204	0.87304471	0.10319306	0.12997235	1.5896409	0.10081136	0.021827908	0.89897213	0.13649005	0.040227718	1.5086002	0.026659586	-0.018503774	0.801549	0.11098075	0.079690235	1.4586322	0.47916663	-0.10778535	1.1470574	0.4732958	0.1868427	1.468242	0.47491872	0.017870451	1.140379	0.4668514	0.062194576	1.2677061	0.84882558	-0.14288701	1.226299	0.87063459	0.22763457	1.3358285	0.94318343	-0.079511306	1.3318687	0.95159292	0.16281937	1.1630627	0.99262835	0.027951602	1.2879691	1.3940953	-0.14503838	1.2849312	1.4143185	0.18772916	1.2181082	1.4523851	0.022565702	1.1225897	1.0681321	-0.18876288	1.1780241	1.0618755	0.29484066	1.2176776	0.82510897	-0.24100368	1.3889217	0.88016833	0.29115272
415	1.656	1.7244565	0.071320431	-0.038884488	1.0025248	0.040077531	0.092808451	1.5667077	0.075621293	-0.071273607	0.87575644	0.10581678	0.1309572	1.5918883	0.09994084	0.021823887	0.9015582	0.13870804	0.040923901	1.5098202	0.027548444	-0.018955879	0.80379453	0.11504195	0.080403585	1.4666936	0.48060458	-0.10823426	1.1542105	0.47201494	0.18661526	1.475519	0.47627596	0.017501102	1.1474211	0.46529039	0.061905579	1.2746409	0.84888276	-0.14364797	1.2330166	0.86915338	0.22697505	1.3420401	0.94321329	-0.080039252	1.3384865	0.95052436	0.16226474	1.1692495	0.9921251	0.027661749	1.2937504	1.3934547	-0.14567009	1.2905855	1.4135006	0.18720777	1.2236903	1.4519241	0.021798778	1.1289112	1.066951	-0.18949608	1.1835422	1.0609788	0.29375896	1.2241808	0.82417939	-0.24167148	1.3938846	0.87875059	0.29088016
416	1.66	1.7266282	0.067618254	-0.037610355	1.0030235	0.040349527	0.092835474	1.5692476	0.075416643	-0.071610992	0.87923733	0.10871702	0.13224844	1.5940997	0.099277269	0.021673045	0.90434817	0.14102209	0.041634125	1.5110493	0.028391918	-0.019459404	0.80628168	0.11931067	0.08108773	1.4748923	0.48232717	-0.10849564	1.162162	0.47082028	0.18652276	1.4829382	0.47806939	0.017012298	1.1546609	0.46373545	0.061675766	1.2815232	0.8492157	-0.14435388	1.2399321	0.86767143	0.22636144	1.3482368	0.94342835	-0.080570828	1.3450758	0.94953644	0.16167786	1.1754348	0.99163689	0.027455418	1.2995342	1.3929129	-0.14630073	1.2962545	1.4128084	0.18668227	1.2293269	1.4515317	0.021054652	1.1352079	1.0657621	-0.19035672	1.1890046	1.0601715	0.29267323	1.2307366	0.82332867	-0.24231845	1.3987603	0.87736647	0.29058993
417	1.664	1.7285207	0.064065304	-0.036583315	1.0035882	0.040642152	0.092971354	1.5716243	0.075275614	-0.072045607	0.88293072	0.11178548	0.13354092	1.5963299	0.098763459	0.021359972	0.90736692	0.14342802	0.042351317	1.5122378	0.029257359	-0.020102846	0.80903805	0.12378942	0.081711324	1.4831568	0.48413732	-0.10857724	1.1704474	0.4696454	0.18649109	1.490464	0.48007743	0.016425967	1.1620608	0.46219474	0.061497741	1.2883735	0.84980327	-0.14503615	1.2469881	0.86622574	0.22576793	1.3544398	0.94383694	-0.081109979	1.3516293	0.94863589	0.16105504	1.1816196	0.99116419	0.027349349	1.3053149	1.3924716	-0.14692172	1.3018928	1.4122656	0.18616397	1.2349836	1.4511672	0.020348011	1.1415341	1.064648	-0.19126729	1.1944218	1.0594746	0.29158847	1.2373467	0.8225609	-0.24294396	1.4035493	0.87602842	0.29028695
